<svg xmlns="http://www.w3.org/2000/svg" viewBox="0 0 32 32">
  <defs>
    <filter id="glow">
      <feGaussianBlur stdDeviation="1" result="coloredBlur"/>
      <feMerge>
        <feMergeNode in="coloredBlur"/>
        <feMergeNode in="SourceGraphic"/>
      </feMerge>
    </filter>
  </defs>

  <!-- 3D Wireframe M -->
  <g filter="url(#glow)">
    <!-- Back face (dimmer, offset for depth) -->
    <path
      d="M7,25 L7,7 L11,7 L16,14 L21,7 L25,7 L25,25 L21,25 L21,13 L16,20 L11,13 L11,25 Z"
      fill="none"
      stroke="#00aa33"
      stroke-width="0.8"
      transform="translate(1.5, -1.5)"
    />

    <!-- Depth connecting lines (z-axis) -->
    <g stroke="#00cc44" stroke-width="0.6">
      <!-- Left vertical bar connections -->
      <line x1="7" y1="25" x2="8.5" y2="23.5"/>
      <line x1="7" y1="7" x2="8.5" y2="5.5"/>
      <line x1="11" y1="25" x2="12.5" y2="23.5"/>
      <line x1="11" y1="7" x2="12.5" y2="5.5"/>

      <!-- Middle peak connections -->
      <line x1="16" y1="14" x2="17.5" y2="12.5"/>
      <line x1="16" y1="20" x2="17.5" y2="18.5"/>
      <line x1="11" y1="13" x2="12.5" y2="11.5"/>
      <line x1="21" y1="13" x2="22.5" y2="11.5"/>

      <!-- Right vertical bar connections -->
      <line x1="21" y1="7" x2="22.5" y2="5.5"/>
      <line x1="21" y1="25" x2="22.5" y2="23.5"/>
      <line x1="25" y1="7" x2="26.5" y2="5.5"/>
      <line x1="25" y1="25" x2="26.5" y2="23.5"/>
    </g>

    <!-- Front face (brightest) -->
    <path
      d="M7,25 L7,7 L11,7 L16,14 L21,7 L25,7 L25,25 L21,25 L21,13 L16,20 L11,13 L11,25 Z"
      fill="none"
      stroke="#00ff41"
      stroke-width="1.2"
    />

    <!-- Grid subdivisions on front face for wireframe effect -->
    <g stroke="#00ff41" stroke-width="0.4">
      <!-- Horizontal lines on left bar -->
      <line x1="7" y1="12" x2="11" y2="12"/>
      <line x1="7" y1="17" x2="10" y2="14"/>
      <line x1="7" y1="21" x2="11" y2="21"/>

      <!-- Horizontal lines on right bar -->
      <line x1="21" y1="12" x2="25" y2="12"/>
      <line x1="22" y1="14" x2="25" y2="17"/>
      <line x1="21" y1="21" x2="25" y2="21"/>
    </g>
  </g>
</svg>
